<svg stroke-linejoin="round" xmlns="http://www.w3.org/2000/svg" fill-rule="evenodd" height="10.48mm" width="8.26mm" version="1.2" preserveAspectRatio="xMidYMid" stroke-width="28.222" viewBox="0 0 826 1048"><defs class="ClipPathGroup"><clipPath id="a" clipPathUnits="userSpaceOnUse"><rect y="0" x="0" width="826" height="1048"/></clipPath></defs><g class="SlideGroup"><g class="Slide" clip-path="url(#a)"><g class="Page"><g><rect height="961" width="708" y="44" x="46" class="BoundingBox" fill="none"/></g><g><rect height="957" width="704" y="45" x="48" class="BoundingBox" fill="none"/><path d="m400 1001h-352v-956h703v956h-351z" fill="#6cc"/></g><g><rect height="957" width="704" y="45" x="48" class="BoundingBox" fill="none"/></g><g><rect height="1017" width="799" y="8" x="6" class="BoundingBox" fill="none"/></g><g><rect height="1015" width="798" y="8" x="7" class="BoundingBox" fill="none"/><path d="m25 73c-17 43-23 270-12 514l17 435h774v-993l-376-18c-276-10-381 7-403 62zm707 419l-17 437-331 22-326 16v-911h691l-17 436z"/></g><g><rect height="169" width="181" y="275" x="243" class="BoundingBox" fill="none"/></g><g><rect height="374" width="256" y="340" x="411" class="BoundingBox" fill="none"/></g><g><rect height="116" width="96" y="770" x="406" class="BoundingBox" fill="none"/></g></g></g></g></svg>
