#define sample_width 32
#define sample_height 32
static char sample_bits[] = {
  0x00, 0x00, 0x00, 0x00, 0x00, 0x00, 0xE6, 0x00, 0x00, 0x00, 0x1F, 0x00, 
  0xC0, 0xF7, 0x0F, 0x01, 0x40, 0x80, 0xFF, 0x01, 0x40, 0x80, 0xFD, 0x03, 
  0x40, 0x80, 0xFF, 0x03, 0x40, 0x00, 0xF9, 0x03, 0x40, 0x00, 0xE0, 0x03, 
  0x40, 0x00, 0xC0, 0x02, 0x40, 0x00, 0x00, 0x0E, 0x00, 0x00, 0x00, 0x02, 
  0x60, 0x00, 0x30, 0x02, 0x50, 0x0C, 0x00, 0x02, 0x40, 0x80, 0x01, 0x02, 
  0xE0, 0x00, 0x80, 0x07, 0x80, 0x01, 0x40, 0x07, 0x80, 0x03, 0x60, 0x00, 
  0x00, 0xFE, 0x9F, 0x00, 0x00, 0x39, 0x3C, 0x04, 0x80, 0x7D, 0x3A, 0x03, 
  0x40, 0xEE, 0x7F, 0x01, 0x00, 0xFE, 0x6F, 0x00, 0x40, 0xDE, 0x7B, 0x00, 
  0xC0, 0x7F, 0x7F, 0x00, 0x00, 0xEE, 0x7B, 0x00, 0x00, 0xFE, 0xFD, 0x00, 
  0x00, 0x02, 0x81, 0x00, 0x00, 0x02, 0x01, 0x00, 0x00, 0x02, 0x41, 0x00, 
  0x00, 0xFC, 0x3E, 0x00, 0x00, 0x00, 0x00, 0x00, };
