#define sample_width 14
#define sample_height 19
static unsigned char sample_bits[] = {
   0x00, 0x00, 0xfc, 0x0f, 0x02, 0x10, 0xe2, 0x11, 0xf2, 0x13, 0x3a, 0x17,
   0x1a, 0x16, 0x02, 0x17, 0x82, 0x13, 0xc2, 0x11, 0xc2, 0x10, 0xc2, 0x10,
   0x02, 0x10, 0xc2, 0x10, 0xc2, 0x10, 0x02, 0x10, 0x02, 0x10, 0xfc, 0x0f,
   0x00, 0x00 };
