/* XPM */
static char *noname[] = {
/* width height ncolors chars_per_pixel */
"32 32 6 1",
/* colors */
"  c #000000",
". c #339966",
"X c #66CCCC",
"o c #99FFCC",
"O c #FFFFFF",
"+ c None",
/* pixels */
"OOOOOOOOOOOOOOOOOOOOOOOOOOOOOOOO",
"OO                            OO",
"O oooooooooooooooooooooooooooX O",
"O oXXXXXXXXXXXXXXXXXXXXXXXXXX. O",
"O oXXXXXXXXXXXXXXXXXXXXXXXXXX. O",
"O oXXXXXXXXXXXXXXXXXXXXXXXXXX. O",
"O oXXXXXXXXXXXXXXXXXXXXXXXXXX. O",
"O oXXXXXXXXXXXXXXXXXXXXXXXXXX. O",
"O oXXXXXXXXXXXXXXXXXXXXXXXXXX. O",
"O oXXXXXXXXXXXXXXXXXXXXXXXXXX. O",
"O oXXXXXXXXXXXOOOOXXXXXXXXXXX. O",
"O oXXXXXXXXXXOOOOOOXXXXXXXXXX. O",
"O oXXXXXXXXXOOO..OOOXXXXXXXXX. O",
"O oXXXXXXXXXOO..XXOO.XXXXXXXX. O",
"O oXXXXXXXXXX..XXOOO.XXXXXXXX. O",
"O oXXXXXXXXXXXXXOOO..XXXXXXXX. O",
"O oXXXXXXXXXXXXOOO..XXXXXXXXX. O",
"O oXXXXXXXXXXXXOO..XXXXXXXXXX. O",
"O oXXXXXXXXXXXXOO.XXXXXXXXXXX. O",
"O oXXXXXXXXXXXXX..XXXXXXXXXXX. O",
"O oXXXXXXXXXXXXOOXXXXXXXXXXXX. O",
"O oXXXXXXXXXXXXOO.XXXXXXXXXXX. O",
"O oXXXXXXXXXXXXX..XXXXXXXXXXX. O",
"O oXXXXXXXXXXXXXXXXXXXXXXXXXX. O",
"O oXXXXXXXXXXXXXXXXXXXXXXXXXX. O",
"O oXXXXXXXXXXXXXXXXXXXXXXXXXX. O",
"O oXXXXXXXXXXXXXXXXXXXXXXXXXX. O",
"O oXXXXXXXXXXXXXXXXXXXXXXXXXX. O",
"O oXXXXXXXXXXXXXXXXXXXXXXXXXX. O",
"O X........................... O",
"OO                            OO",
"OOOOOOOOOOOOOOOOOOOOOOOOOOOOOOOO"
};
