/* XPM */
static char *sample[] = {
/* columns rows colors chars-per-pixel */
"32 32 4 1",
"  c gray100",
". c black",
"X c red",
"o c yellow",
/* pixels */
"                                ",
"                 ..  ...        ",
"                .XX..           ",
"      ..... ....XXXX    .       ",
"      .        .XX.......       ",
"      .        .XX.XXX.XX.      ",
"      .        .XX.XXX.XX.      ",
"      .         .  ....XX.      ",
"      .              .XX..      ",
"      .               .. .      ",
"      .                  ...    ",
"                         .      ",
"     ..             ..   .      ",
"    . .   ..             .      ",
"      .        .X        .      ",
"     ...        o      ....     ",
"       ..             . ...     ",
"       ...           ..         ",
"         ............  .        ",
"        .  .X.    .XX.    .     ",
"       .. .XXX.  .XXX.  ..      ",
"      .  ..XXXXXXXXXXX. .       ",
"         .XXXXXXXXXXXX.         ",
"      .  .XXXXXXXXXXXX.         ",
"      ....XXXXXXXXXXXXX         ",
"         .XXXXXXXXXXXXX         ",
"         ...XXXX.XXX....        ",
"         .      .      .        ",
"         .      .               ",
"         .      .     .         ",
"          ...... .....          ",
"                                "
};
