P3
15 19
255
255 255 255  0 0 0  0 0 0  0 0 0  0 0 0  0 0 0
0 0 0  0 0 0  0 0 0  0 0 0  0 0 0  0 0 0
0 0 0  0 0 0  255 255 255
0 0 0  153 255 204  153 255 204  153 255 204  153 255 204  153 255 204
153 255 204  153 255 204  153 255 204  153 255 204  153 255 204  153 255 204
153 255 204  102 204 204  0 0 0
0 0 0  153 255 204  102 204 204  102 204 204  102 204 204  102 204 204
102 204 204  102 204 204  102 204 204  102 204 204  102 204 204  102 204 204
102 204 204  51 153 102  0 0 0
0 0 0  153 255 204  102 204 204  102 204 204  102 204 204  255 255 255
255 255 255  255 255 255  255 255 255  102 204 204  102 204 204  102 204 204
102 204 204  51 153 102  0 0 0
0 0 0  153 255 204  102 204 204  102 204 204  255 255 255  255 255 255
255 255 255  255 255 255  255 255 255  255 255 255  102 204 204  102 204 204
102 204 204  51 153 102  0 0 0
0 0 0  153 255 204  102 204 204  255 255 255  255 255 255  255 255 255
51 153 102  51 153 102  255 255 255  255 255 255  255 255 255  102 204 204
102 204 204  51 153 102  0 0 0
0 0 0  153 255 204  102 204 204  255 255 255  255 255 255  51 153 102
51 153 102  102 204 204  102 204 204  255 255 255  255 255 255  51 153 102
102 204 204  51 153 102  0 0 0
0 0 0  153 255 204  102 204 204  102 204 204  51 153 102  51 153 102
102 204 204  102 204 204  255 255 255  255 255 255  255 255 255  51 153 102
102 204 204  51 153 102  0 0 0
0 0 0  153 255 204  102 204 204  102 204 204  102 204 204  102 204 204
102 204 204  255 255 255  255 255 255  255 255 255  51 153 102  51 153 102
102 204 204  51 153 102  0 0 0
0 0 0  153 255 204  102 204 204  102 204 204  102 204 204  102 204 204
255 255 255  255 255 255  255 255 255  51 153 102  51 153 102  102 204 204
102 204 204  51 153 102  0 0 0
0 0 0  153 255 204  102 204 204  102 204 204  102 204 204  102 204 204
255 255 255  255 255 255  51 153 102  51 153 102  102 204 204  102 204 204
102 204 204  51 153 102  0 0 0
0 0 0  153 255 204  102 204 204  102 204 204  102 204 204  102 204 204
255 255 255  255 255 255  51 153 102  102 204 204  102 204 204  102 204 204
102 204 204  51 153 102  0 0 0
0 0 0  153 255 204  102 204 204  102 204 204  102 204 204  102 204 204
102 204 204  51 153 102  51 153 102  102 204 204  102 204 204  102 204 204
102 204 204  51 153 102  0 0 0
0 0 0  153 255 204  102 204 204  102 204 204  102 204 204  102 204 204
255 255 255  255 255 255  102 204 204  102 204 204  102 204 204  102 204 204
102 204 204  51 153 102  0 0 0
0 0 0  153 255 204  102 204 204  102 204 204  102 204 204  102 204 204
255 255 255  255 255 255  51 153 102  102 204 204  102 204 204  102 204 204
102 204 204  51 153 102  0 0 0
0 0 0  153 255 204  102 204 204  102 204 204  102 204 204  102 204 204
102 204 204  51 153 102  51 153 102  102 204 204  102 204 204  102 204 204
102 204 204  51 153 102  0 0 0
0 0 0  153 255 204  102 204 204  102 204 204  102 204 204  102 204 204
102 204 204  102 204 204  102 204 204  102 204 204  102 204 204  102 204 204
102 204 204  51 153 102  0 0 0
0 0 0  102 204 204  51 153 102  51 153 102  51 153 102  51 153 102
51 153 102  51 153 102  51 153 102  51 153 102  51 153 102  51 153 102
51 153 102  51 153 102  0 0 0
255 255 255  0 0 0  0 0 0  0 0 0  0 0 0  0 0 0
0 0 0  0 0 0  0 0 0  0 0 0  0 0 0  0 0 0
0 0 0  0 0 0  255 255 255
