P2
15 19
255
255 0 0 0 0 0 0 0 0 0 0 0 0 0 255
0 218 218 218 218 218 218 218 218 218 218 218 218 173 0
0 218 173 173 173 173 173 173 173 173 173 173 173 116 0
0 218 173 173 173 255 255 255 255 173 173 173 173 116 0
0 218 173 173 255 255 255 255 255 255 173 173 173 116 0
0 218 173 255 255 255 116 116 255 255 255 173 173 116 0
0 218 173 255 255 116 116 173 173 255 255 116 173 116 0
0 218 173 173 116 116 173 173 255 255 255 116 173 116 0
0 218 173 173 173 173 173 255 255 255 116 116 173 116 0
0 218 173 173 173 173 255 255 255 116 116 173 173 116 0
0 218 173 173 173 173 255 255 116 116 173 173 173 116 0
0 218 173 173 173 173 255 255 116 173 173 173 173 116 0
0 218 173 173 173 173 173 116 116 173 173 173 173 116 0
0 218 173 173 173 173 255 255 173 173 173 173 173 116 0
0 218 173 173 173 173 255 255 116 173 173 173 173 116 0
0 218 173 173 173 173 173 116 116 173 173 173 173 116 0
0 218 173 173 173 173 173 173 173 173 173 173 173 116 0
0 173 116 116 116 116 116 116 116 116 116 116 116 116 0
255 0 0 0 0 0 0 0 0 0 0 0 0 0 255
