P1
14 19
00000000000000
00111111111100
01000000000010
01000111100010
01001111110010
01011100111010
01011000011010
01000000111010
01000001110010
01000011100010
01000011000010
01000011000010
01000000000010
01000011000010
01000011000010
01000000000010
01000000000010
00111111111100
00000000000000
